<svg width="441" height="287" viewBox="0 0 441 287" fill="none" xmlns="http://www.w3.org/2000/svg">
<g clip-path="url(#clip0_68_21)">
<path d="M164.85 2.83C164.85 1.26 166.13 0 167.71 0H272.53C274.11 0 275.39 1.27 275.39 2.83V228.53L275.63 228.59V284.01C275.63 285.58 274.35 286.84 272.77 286.84H167.95C166.37 286.84 165.09 285.57 165.09 284.01" fill="black"/>
<path d="M155.27 5.53001V283.95C155.27 285.53 153.99 286.81 152.41 286.81H18.74C15.01 286.82 13.69 281.89 16.92 280.03L43.3 264.81C44.19 264.3 44.73 263.35 44.73 262.33V61.94C44.73 60.64 43.86 59.51 42.61 59.18L2.12 48.34C-0.710002 47.58 -0.710002 43.57 2.12 42.81L44.73 31.4L151.67 2.77001C153.49 2.28001 155.27 3.65001 155.27 5.53001Z" fill="black"/>
<path d="M285.2 5.53001V283.95C285.2 285.53 286.48 286.81 288.06 286.81H421.73C425.46 286.82 426.78 281.89 423.55 280.03L397.17 264.81C396.28 264.3 395.74 263.35 395.74 262.33V61.94C395.74 60.64 396.61 59.51 397.86 59.18L438.35 48.34C441.18 47.58 441.18 43.57 438.35 42.81L395.74 31.4L288.8 2.77001C286.98 2.28001 285.2 3.65001 285.2 5.53001Z" fill="black"/>
</g>
<defs>
<clipPath id="clip0_68_21">
<rect width="440.47" height="286.85" fill="white"/>
</clipPath>
</defs>
</svg>
